<svg xmlns="http://www.w3.org/2000/svg" version="1.1" xmlns:xlink="http://www.w3.org/1999/xlink" xmlns:svgjs="http://svgjs.com/svgjs" width="512" height="512" x="0" y="0" viewBox="0 0 512 512" style="enable-background:new 0 0 512 512" xml:space="preserve" class=""><g><path d="M256 440.558c-121.463 0-220.279-98.816-220.279-220.279S134.537 0 256 0s220.279 98.816 220.279 220.279S377.463 440.558 256 440.558zm0-404.837c-101.765 0-184.558 82.793-184.558 184.558S154.235 404.837 256 404.837s184.558-82.793 184.558-184.558S357.765 35.721 256 35.721z" style="" fill="#ffda44" data-original="#ffda44" class=""></path><path d="M256 0v35.721c101.765 0 184.558 82.793 184.558 184.558S357.765 404.837 256 404.837v35.721c121.463 0 220.279-98.816 220.279-220.279S377.463 0 256 0z" style="" fill="#ffad41" data-original="#ffad41" class=""></path><path d="M298.865 494.14h-85.73c-55.01 0-100.019-45.008-100.019-100.019V220.279c0-55.009 45.008-100.019 100.019-100.019h85.73c55.01 0 100.019 45.01 100.019 100.019v173.842c0 55.01-45.009 100.019-100.019 100.019z" style="" fill="#ffe6c6" data-original="#ffe6c6" class=""></path><circle cx="190.512" cy="309.581" r="17.86" style="" fill="#50412e" data-original="#50412e"></circle><path d="M298.865 120.26H256v373.88h42.865c55.01 0 100.019-45.008 100.019-100.019V220.279c0-55.01-45.009-100.019-100.019-100.019z" style="" fill="#ffd6a0" data-original="#ffd6a0" class=""></path><circle cx="321.488" cy="309.581" r="17.86" style="" fill="#50412e" data-original="#50412e"></circle><path d="M298.865 102.4h-85.73c-64.999 0-117.879 52.88-117.879 117.879v173.842C95.256 459.12 148.136 512 213.135 512h85.73c64.999 0 117.879-52.88 117.879-117.879V220.279c0-64.999-52.88-117.879-117.879-117.879zm33.617 276.156c-12.644-17.519-33.222-28.491-55.32-28.491h-42.326c-22.098 0-42.676 10.972-55.32 28.491-29.141-13.104-48.54-42.247-48.54-74.928v-53.581h20.512c44.201 0 83.002-23.557 104.511-58.774 21.509 35.217 60.31 58.774 104.511 58.774h20.512v53.581c.001 32.681-19.398 61.825-48.54 74.928z" style="" fill="#a0815c" data-original="#a0815c" class=""></path><path d="M298.865 102.4H256v88.872c21.509 35.217 60.31 58.774 104.511 58.774h20.512v53.581c0 32.681-19.399 61.825-48.541 74.928-12.644-17.519-33.222-28.491-55.32-28.491H256V512h42.865c64.999 0 117.879-52.88 117.879-117.879V220.279c0-64.999-52.88-117.879-117.879-117.879z" style="" fill="#786145" data-original="#786145" class=""></path><path d="M285.767 416.744c0 16.44-13.327 29.767-29.767 29.767-16.441 0-29.767-13.327-29.767-29.767" style="" fill="#ffe6c6" data-original="#ffe6c6" class=""></path></g></svg>